<svg width="59" height="24" viewBox="0 0 59 24" fill="none" xmlns="http://www.w3.org/2000/svg">
<path fill-rule="evenodd" clip-rule="evenodd" d="M22 11.9991C22 10.3167 20.8696 8.99914 19 8.99914H15.927L15.9548 8.92342C15.9826 8.84824 16.0609 8.64176 16.137 8.44124L16.1376 8.43964C16.2047 8.26276 16.27 8.09081 16.2971 8.01805C16.4872 7.5077 16.626 7.0965 16.7382 6.68927C16.9079 6.07378 17 5.51926 17 4.99915C17 3.52714 16.0919 2.61286 14.7483 2.22163C14.1423 2.04517 13.6148 1.99905 13 1.99915H12.5205L12.2203 2.37303C11.8811 2.79536 11.2151 3.55647 10.4472 4.43397L10.4471 4.43403L10.447 4.43415C9.03026 6.05306 7.2669 8.06805 6.57035 9.08255C6.38961 9.02887 6.19817 9.00004 6 9.00004H4C2.89543 9.00004 2 9.89547 2 11V20C2 21.1046 2.89543 22 4 22H6C6.68713 22 7.29332 21.6535 7.65337 21.1257C7.95674 21.3219 8.29522 21.4857 8.66312 21.6173C9.50544 21.9187 10.3408 22.0112 11.0344 21.9986L18 21.9991C20.7551 21.9991 22 17.9427 22 11.9991ZM8 17.9991L8 18.0014C8.00076 18.9022 8.45271 19.4179 9.33688 19.7342C9.91062 19.9395 10.5254 20.0076 10.9631 19.9998L11 19.9991H18C19.0151 19.9991 20 16.7899 20 11.9991C20 11.359 19.6912 10.9991 19 10.9991H15C13.8055 10.9991 13.5555 10.0755 13.8047 9.07545C13.8633 8.84021 13.9489 8.58131 14.079 8.22969C14.1102 8.14527 14.1946 7.92285 14.2733 7.71546L14.2739 7.71366L14.274 7.71346C14.3383 7.54398 14.3987 7.38489 14.4229 7.3198C14.5944 6.85951 14.7162 6.49872 14.8101 6.15775C14.9359 5.70146 15 5.31573 15 4.99914C15 4.54817 14.7622 4.30874 14.1891 4.14188C13.9484 4.07177 13.7114 4.03313 13.46 4.01427C12.9338 4.64327 12.1802 5.50297 11.4047 6.38782C9.90193 8.10228 8.31645 9.91114 8.14171 10.3191C8.04443 10.5463 8 10.7589 8 10.9991V17.9991ZM4 20V11H6V20H4Z" fill="#65676B"/>
<path d="M32.38 18C32.28 18 32.23 17.95 32.23 17.85V7.65C32.23 7.55 32.28 7.5 32.38 7.5H33.52C33.62 7.5 33.67 7.55 33.67 7.65V16.695C33.67 16.735 33.69 16.755 33.73 16.755H38.905C39.005 16.755 39.055 16.805 39.055 16.905V17.85C39.055 17.95 39.005 18 38.905 18H32.38ZM41.4747 9.165C41.1947 9.165 40.9647 9.075 40.7847 8.895C40.6047 8.715 40.5147 8.485 40.5147 8.205C40.5147 7.925 40.6047 7.695 40.7847 7.515C40.9647 7.335 41.1947 7.245 41.4747 7.245C41.7547 7.245 41.9847 7.335 42.1647 7.515C42.3447 7.695 42.4347 7.925 42.4347 8.205C42.4347 8.485 42.3447 8.715 42.1647 8.895C41.9847 9.075 41.7547 9.165 41.4747 9.165ZM40.8747 17.985C40.7747 17.985 40.7247 17.935 40.7247 17.835V10.515C40.7247 10.415 40.7747 10.365 40.8747 10.365H42.0147C42.1147 10.365 42.1647 10.415 42.1647 10.515V17.835C42.1647 17.935 42.1147 17.985 42.0147 17.985H40.8747ZM44.5779 18C44.4779 18 44.4279 17.95 44.4279 17.85V7.65C44.4279 7.55 44.4779 7.5 44.5779 7.5H45.7179C45.8179 7.5 45.8679 7.55 45.8679 7.65V13.425C45.8679 13.445 45.8779 13.46 45.8979 13.47C45.9179 13.48 45.9329 13.475 45.9429 13.455L48.7179 10.44C48.7579 10.39 48.8179 10.365 48.8979 10.365H50.2329C50.2929 10.365 50.3279 10.385 50.3379 10.425C50.3579 10.455 50.3479 10.495 50.3079 10.545L48.3729 12.78C48.3529 12.82 48.3479 12.85 48.3579 12.87L50.6529 17.82L50.6679 17.88C50.6679 17.96 50.6229 18 50.5329 18H49.3329C49.2529 18 49.1979 17.96 49.1679 17.88L47.3829 13.8C47.3629 13.75 47.3379 13.745 47.3079 13.785L45.8979 15.345C45.8779 15.385 45.8679 15.41 45.8679 15.42V17.85C45.8679 17.95 45.8179 18 45.7179 18H44.5779ZM57.8443 13.23C57.8843 13.64 57.8993 14.1 57.8893 14.61C57.8893 14.71 57.8393 14.76 57.7393 14.76H52.9543C52.9143 14.76 52.8943 14.78 52.8943 14.82C52.8943 15.16 52.9243 15.42 52.9843 15.6C53.0943 16 53.3143 16.315 53.6443 16.545C53.9843 16.765 54.4093 16.875 54.9193 16.875C55.6593 16.875 56.2293 16.57 56.6293 15.96C56.6793 15.86 56.7443 15.845 56.8243 15.915L57.6793 16.485C57.7493 16.545 57.7643 16.61 57.7243 16.68C57.4443 17.13 57.0443 17.485 56.5243 17.745C56.0143 18.005 55.4343 18.135 54.7843 18.135C54.0543 18.135 53.4393 17.975 52.9393 17.655C52.4393 17.335 52.0643 16.88 51.8143 16.29C51.5743 15.7 51.4543 14.985 51.4543 14.145C51.4543 13.415 51.5093 12.86 51.6193 12.48C51.7993 11.79 52.1593 11.245 52.6993 10.845C53.2393 10.445 53.8943 10.245 54.6643 10.245C55.6743 10.245 56.4293 10.5 56.9293 11.01C57.4293 11.51 57.7343 12.25 57.8443 13.23ZM54.6643 11.49C54.2343 11.49 53.8793 11.6 53.5993 11.82C53.3193 12.03 53.1293 12.315 53.0293 12.675C52.9593 12.895 52.9143 13.175 52.8943 13.515C52.8943 13.555 52.9143 13.575 52.9543 13.575H56.3893C56.4293 13.575 56.4493 13.555 56.4493 13.515C56.4293 13.185 56.3993 12.94 56.3593 12.78C56.2593 12.39 56.0593 12.08 55.7593 11.85C55.4693 11.61 55.1043 11.49 54.6643 11.49Z" fill="#65676B"/>
</svg>
