<svg width="70" height="24" viewBox="0 0 70 24" fill="none" xmlns="http://www.w3.org/2000/svg">
<path d="M14.2412 2.57571L22.846 10.0332C23.1911 10.3323 23.1911 10.8677 22.846 11.1668L14.2412 18.6243C13.7555 19.0452 13 18.7002 13 18.0575V14.15C13 13.7358 12.6638 13.399 12.2496 13.4078C6.39732 13.5334 4.98456 15.1506 3.733 17.1185C3.34622 17.7267 2.54072 17.4703 2.62415 16.7543C3.15924 12.1626 5.55254 8.09601 12.2497 7.81543C12.6636 7.79809 13 7.46421 13 7.05V3.14247C13 2.49978 13.7555 2.15479 14.2412 2.57571Z" fill="#65676B"/>
<path d="M37.6943 13.2534C37.6943 13.0337 37.6602 12.8384 37.5918 12.6675C37.5283 12.4966 37.4136 12.3403 37.2476 12.1987C37.0815 12.0571 36.8472 11.9204 36.5444 11.7886C36.2466 11.6519 35.8657 11.5127 35.4019 11.3711C34.894 11.2148 34.4253 11.0415 33.9956 10.8511C33.5708 10.6558 33.1997 10.4312 32.8823 10.1772C32.5649 9.91846 32.3184 9.62305 32.1426 9.29102C31.9668 8.9541 31.8789 8.56592 31.8789 8.12646C31.8789 7.69189 31.9692 7.29639 32.1499 6.93994C32.3354 6.5835 32.5967 6.27588 32.9336 6.01709C33.2754 5.75342 33.6782 5.55078 34.1421 5.40918C34.606 5.2627 35.1187 5.18945 35.6802 5.18945C36.4712 5.18945 37.1523 5.33594 37.7236 5.62891C38.2998 5.92188 38.7417 6.31494 39.0493 6.80811C39.3618 7.30127 39.5181 7.8457 39.5181 8.44141H37.6943C37.6943 8.08984 37.6187 7.77979 37.4673 7.51123C37.3208 7.23779 37.0962 7.02295 36.7935 6.8667C36.4956 6.71045 36.1172 6.63232 35.6582 6.63232C35.2236 6.63232 34.8623 6.69824 34.5742 6.83008C34.2861 6.96191 34.0713 7.14014 33.9297 7.36475C33.7881 7.58936 33.7173 7.84326 33.7173 8.12646C33.7173 8.32666 33.7637 8.50977 33.8564 8.67578C33.9492 8.83691 34.0908 8.98828 34.2812 9.12988C34.4717 9.2666 34.7109 9.396 34.999 9.51807C35.2871 9.64014 35.6265 9.75732 36.0171 9.86963C36.6079 10.0454 37.123 10.2407 37.5625 10.4556C38.002 10.6655 38.3682 10.9048 38.6611 11.1733C38.9541 11.4419 39.1738 11.7471 39.3203 12.0889C39.4668 12.4258 39.54 12.8091 39.54 13.2388C39.54 13.688 39.4497 14.0933 39.269 14.4546C39.0884 14.811 38.8296 15.1162 38.4927 15.3701C38.1606 15.6191 37.7603 15.812 37.2915 15.9487C36.8276 16.0806 36.3101 16.1465 35.7388 16.1465C35.2261 16.1465 34.7207 16.0781 34.2227 15.9414C33.7295 15.8047 33.2803 15.5972 32.875 15.3188C32.4697 15.0356 32.1475 14.6841 31.9082 14.2642C31.6689 13.8394 31.5493 13.3438 31.5493 12.7773H33.3877C33.3877 13.124 33.4463 13.4194 33.5635 13.6636C33.6855 13.9077 33.854 14.1079 34.0688 14.2642C34.2837 14.4155 34.5327 14.5278 34.8159 14.6011C35.104 14.6743 35.4116 14.7109 35.7388 14.7109C36.1685 14.7109 36.5273 14.6499 36.8154 14.5278C37.1084 14.4058 37.3281 14.2349 37.4746 14.0151C37.6211 13.7954 37.6943 13.5415 37.6943 13.2534ZM42.7334 4.75V16H40.9756V4.75H42.7334ZM42.4258 11.7446L41.8545 11.7373C41.8594 11.1904 41.9351 10.6851 42.0815 10.2212C42.2329 9.75732 42.4429 9.35449 42.7114 9.0127C42.9849 8.66602 43.312 8.3999 43.6929 8.21436C44.0737 8.02393 44.4961 7.92871 44.96 7.92871C45.3506 7.92871 45.7021 7.98242 46.0146 8.08984C46.332 8.19727 46.6055 8.37061 46.835 8.60986C47.0645 8.84424 47.2378 9.15186 47.355 9.53271C47.4771 9.90869 47.5381 10.3677 47.5381 10.9097V16H45.7656V10.895C45.7656 10.5142 45.7095 10.2114 45.5972 9.98682C45.4897 9.76221 45.3311 9.60107 45.1211 9.50342C44.9111 9.40088 44.6548 9.34961 44.3521 9.34961C44.0347 9.34961 43.7539 9.41309 43.5098 9.54004C43.2705 9.66699 43.0703 9.84033 42.9092 10.0601C42.748 10.2798 42.626 10.5337 42.543 10.8218C42.4648 11.1099 42.4258 11.4175 42.4258 11.7446ZM53.793 14.4106V10.6313C53.793 10.3481 53.7417 10.104 53.6392 9.89893C53.5366 9.69385 53.3804 9.53516 53.1704 9.42285C52.9653 9.31055 52.7065 9.25439 52.394 9.25439C52.106 9.25439 51.8569 9.30322 51.647 9.40088C51.437 9.49854 51.2734 9.63037 51.1562 9.79639C51.0391 9.9624 50.9805 10.1504 50.9805 10.3604H49.2227C49.2227 10.0479 49.2983 9.74512 49.4497 9.45215C49.6011 9.15918 49.8208 8.89795 50.1089 8.66846C50.397 8.43896 50.7412 8.2583 51.1416 8.12646C51.542 7.99463 51.9912 7.92871 52.4893 7.92871C53.085 7.92871 53.6123 8.02881 54.0713 8.229C54.5352 8.4292 54.8989 8.73193 55.1626 9.13721C55.4312 9.5376 55.5654 10.0405 55.5654 10.646V14.1689C55.5654 14.5303 55.5898 14.855 55.6387 15.1431C55.6924 15.4263 55.7681 15.6729 55.8657 15.8828V16H54.0566C53.9736 15.8096 53.9077 15.5679 53.8589 15.2749C53.8149 14.9771 53.793 14.689 53.793 14.4106ZM54.0493 11.1807L54.064 12.272H52.7969C52.4697 12.272 52.1816 12.3037 51.9326 12.3672C51.6836 12.4258 51.4761 12.5137 51.3101 12.6309C51.144 12.748 51.0195 12.8896 50.9365 13.0557C50.8535 13.2217 50.812 13.4097 50.812 13.6196C50.812 13.8296 50.8608 14.0225 50.9585 14.1982C51.0562 14.3691 51.1978 14.5034 51.3833 14.6011C51.5737 14.6987 51.8032 14.7476 52.0718 14.7476C52.4331 14.7476 52.748 14.6743 53.0166 14.5278C53.29 14.3765 53.5049 14.1934 53.6611 13.9785C53.8174 13.7588 53.9004 13.5513 53.9102 13.356L54.4814 14.1396C54.4229 14.3398 54.3228 14.5547 54.1812 14.7842C54.0396 15.0137 53.854 15.2334 53.6245 15.4434C53.3999 15.6484 53.1289 15.8169 52.8115 15.9487C52.499 16.0806 52.1377 16.1465 51.7275 16.1465C51.21 16.1465 50.7485 16.0439 50.3433 15.8389C49.938 15.6289 49.6206 15.3481 49.3911 14.9966C49.1616 14.6401 49.0469 14.2373 49.0469 13.7881C49.0469 13.3682 49.125 12.9971 49.2812 12.6748C49.4424 12.3477 49.6768 12.0742 49.9844 11.8545C50.2969 11.6348 50.6777 11.4688 51.127 11.3564C51.5762 11.2393 52.0889 11.1807 52.665 11.1807H54.0493ZM59.1836 9.58398V16H57.4185V8.0752H59.103L59.1836 9.58398ZM61.6079 8.02393L61.5933 9.66455C61.4858 9.64502 61.3687 9.63037 61.2417 9.62061C61.1196 9.61084 60.9976 9.60596 60.8755 9.60596C60.5728 9.60596 60.3066 9.6499 60.0771 9.73779C59.8477 9.8208 59.6548 9.94287 59.4985 10.104C59.3472 10.2603 59.23 10.4507 59.147 10.6753C59.064 10.8999 59.0151 11.1514 59.0005 11.4297L58.5977 11.459C58.5977 10.9609 58.6465 10.4995 58.7441 10.0747C58.8418 9.6499 58.9883 9.27637 59.1836 8.9541C59.3838 8.63184 59.6328 8.38037 59.9307 8.19971C60.2334 8.01904 60.5825 7.92871 60.978 7.92871C61.0854 7.92871 61.2002 7.93848 61.3223 7.95801C61.4492 7.97754 61.5444 7.99951 61.6079 8.02393ZM66.061 16.1465C65.4751 16.1465 64.9453 16.0513 64.4717 15.8608C64.0029 15.6655 63.6025 15.3945 63.2705 15.0479C62.9434 14.7012 62.6919 14.2935 62.5161 13.8247C62.3403 13.356 62.2524 12.8506 62.2524 12.3086V12.0156C62.2524 11.3955 62.3428 10.834 62.5234 10.3311C62.7041 9.82812 62.9556 9.39844 63.2778 9.04199C63.6001 8.68066 63.981 8.40479 64.4204 8.21436C64.8599 8.02393 65.3359 7.92871 65.8486 7.92871C66.415 7.92871 66.9106 8.02393 67.3354 8.21436C67.7603 8.40479 68.1118 8.67334 68.3901 9.02002C68.6733 9.36182 68.8833 9.76953 69.02 10.2432C69.1616 10.7168 69.2324 11.2393 69.2324 11.8105V12.5649H63.1094V11.2979H67.4893V11.1587C67.4795 10.8413 67.416 10.5435 67.2988 10.2651C67.1865 9.98682 67.0132 9.76221 66.7788 9.59131C66.5444 9.42041 66.2319 9.33496 65.8413 9.33496C65.5483 9.33496 65.2871 9.39844 65.0576 9.52539C64.833 9.64746 64.645 9.82568 64.4937 10.0601C64.3423 10.2944 64.2251 10.5776 64.1421 10.9097C64.064 11.2368 64.0249 11.6055 64.0249 12.0156V12.3086C64.0249 12.6553 64.0713 12.9775 64.1641 13.2754C64.2617 13.5684 64.4033 13.8247 64.5889 14.0444C64.7744 14.2642 64.999 14.4375 65.2627 14.5645C65.5264 14.6865 65.8267 14.7476 66.1636 14.7476C66.5884 14.7476 66.9668 14.6621 67.2988 14.4912C67.6309 14.3203 67.9189 14.0786 68.1631 13.7661L69.0933 14.667C68.9224 14.916 68.7002 15.1553 68.4268 15.3848C68.1533 15.6094 67.8188 15.7925 67.4233 15.9341C67.0327 16.0757 66.5786 16.1465 66.061 16.1465Z" fill="#65676B"/>
</svg>
